<?xml version="1.0" encoding="UTF-8"?>
<svg version="1.1" xmlns="http://www.w3.org/2000/svg" width="512" height="512">
<path d="M0 0 C127.71 0 255.42 0 387 0 C387 58.41 387 116.82 387 177 C389.31 177.33 391.62 177.66 394 178 C406.97049953 181.30580331 419.3758295 186.40933964 431 193 C431.66338379 193.37495605 432.32676758 193.74991211 433.01025391 194.13623047 C443.29880455 200.04740781 452.32121726 206.92688979 461 215 C461.55284668 215.50901855 462.10569336 216.01803711 462.67529297 216.54248047 C490.89422768 242.7747492 510.3558002 280.96153536 512.17700195 319.77197266 C512.93305585 367.79193768 501.14429779 409.49392066 467.66796875 445.25390625 C466.78753906 446.16011719 465.90710938 447.06632812 465 448 C464.47011475 448.55179932 463.94022949 449.10359863 463.39428711 449.67211914 C451.71506801 461.64138234 437.83571474 470.46606308 423 478 C422.02804687 478.50015625 421.05609375 479.0003125 420.0546875 479.515625 C381.7417288 498.02769679 335.81736163 498.85186833 296 485 C268.07653022 474.58410254 243.22531723 456.57789826 225 433 C222.90467302 430.90467302 218.26816141 431.8450362 215.37583923 431.84178162 C214.4624881 431.83685196 213.54913696 431.8319223 212.60810852 431.82684326 C209.51339926 431.81136932 206.41871061 431.80308009 203.32397461 431.79467773 C201.08109381 431.78496959 198.83821487 431.77482453 196.59533787 431.76427555 C190.56626849 431.73713448 184.53719177 431.71600636 178.50809479 431.69608307 C172.85926236 431.67651708 167.21045875 431.65158274 161.56164551 431.6270752 C145.02028527 431.55846242 128.47889001 431.49851561 111.9375 431.4375 C56.5284375 431.2209375 56.5284375 431.2209375 0 431 C0 288.77 0 146.54 0 0 Z M25 26 C25 151.07 25 276.14 25 405 C85.06 405 145.12 405 207 405 C206.20820555 401.04102773 205.44444043 398.54907433 203.8125 395 C201.42509208 389.37402134 199.57825911 383.68041249 197.875 377.8125 C197.51305542 376.59530273 197.51305542 376.59530273 197.14379883 375.35351562 C194.75648165 366.9240415 193.54769681 358.77028193 192 350 C150.09 350 108.18 350 65 350 C65 338.45 65 326.9 65 315 C106.91 315 148.82 315 192 315 C193.65 307.08 195.3 299.16 197 291 C203.41501708 269.47405381 212.98216419 251.22497014 226 233 C172.87 233 119.74 233 65 233 C65 221.45 65 209.9 65 198 C67.48705475 198.01776489 69.9741095 198.03552979 72.53652954 198.05383301 C95.9895859 198.21750711 119.44256675 198.33645709 142.89606667 198.41449738 C154.95340195 198.4556869 167.01031719 198.51180849 179.06738281 198.60351562 C189.58063721 198.68344204 200.09358729 198.7349105 210.60713708 198.75270796 C216.17027437 198.76310587 221.73254134 198.78741192 227.29539871 198.84584045 C232.5405213 198.90048101 237.78442213 198.91682472 243.02980232 198.90486145 C244.94615781 198.90704731 246.8625577 198.92275935 248.77866554 198.9536438 C261.59908886 199.15000554 269.39100157 197.38057125 280 190 C305.33466721 176.31953801 332.60752988 174.09201808 361 173 C361 124.49 361 75.98 361 26 C250.12 26 139.24 26 25 26 Z M330 236 C330 261.08 330 286.16 330 312 C306.57 312 283.14 312 259 312 C259 326.19 259 340.38 259 355 C282.43 355 305.86 355 330 355 C330 380.08 330 405.16 330 431 C344.19 431 358.38 431 373 431 C373 405.92 373 380.84 373 355 C396.43 355 419.86 355 444 355 C444 340.81 444 326.62 444 312 C420.57 312 397.14 312 373 312 C373 286.92 373 261.84 373 236 C358.81 236 344.62 236 330 236 Z " fill="#010002" transform="translate(0,9)"/>
<path d="M0 0 C82.5 0 165 0 250 0 C250 11.55 250 23.1 250 35 C167.5 35 85 35 0 35 C0 23.45 0 11.9 0 0 Z " fill="#010002" transform="translate(65,90)"/>
</svg>


